<svg width="45" height="45" viewBox="0 0 45 45" fill="none" xmlns="http://www.w3.org/2000/svg">
<g id="action_key">
<mask id="mask0_32_78" style="mask-type:alpha" maskUnits="userSpaceOnUse" x="0" y="0" width="45" height="45">
<rect id="Bounding box" width="45" height="45" fill="#D9D9D9"/>
</mask>
<g mask="url(#mask0_32_78)">
<path id="action_key_2" d="M40.5 43.125L34.7344 37.4063C34.1719 37.75 33.5703 38.0078 32.9297 38.1797C32.2891 38.3516 31.625 38.4375 30.9375 38.4375C28.875 38.4375 27.1094 37.7031 25.6406 36.2344C24.1719 34.7656 23.4375 33 23.4375 30.9375C23.4375 28.875 24.1719 27.1094 25.6406 25.6406C27.1094 24.1719 28.875 23.4375 30.9375 23.4375C33 23.4375 34.7656 24.1719 36.2344 25.6406C37.7031 27.1094 38.4375 28.875 38.4375 30.9375C38.4375 31.6563 38.3438 32.3359 38.1563 32.9766C37.9688 33.6172 37.7031 34.2188 37.3594 34.7813L43.125 40.5L40.5 43.125ZM10.3125 38.4375C8.25 38.4375 6.48438 37.7031 5.01563 36.2344C3.54688 34.7656 2.8125 33 2.8125 30.9375C2.8125 28.875 3.54688 27.1094 5.01563 25.6406C6.48438 24.1719 8.25 23.4375 10.3125 23.4375C12.375 23.4375 14.1406 24.1719 15.6094 25.6406C17.0781 27.1094 17.8125 28.875 17.8125 30.9375C17.8125 33 17.0781 34.7656 15.6094 36.2344C14.1406 37.7031 12.375 38.4375 10.3125 38.4375ZM10.3125 34.6875C11.3438 34.6875 12.2266 34.3203 12.9609 33.586C13.6953 32.8516 14.0625 31.9688 14.0625 30.9375C14.0625 29.9063 13.6953 29.0234 12.9609 28.2891C12.2266 27.5547 11.3438 27.1875 10.3125 27.1875C9.28125 27.1875 8.39844 27.5547 7.66406 28.2891C6.92969 29.0234 6.5625 29.9063 6.5625 30.9375C6.5625 31.9688 6.92969 32.8516 7.66406 33.586C8.39844 34.3203 9.28125 34.6875 10.3125 34.6875ZM30.9375 34.6875C31.9688 34.6875 32.8516 34.3203 33.586 33.586C34.3203 32.8516 34.6875 31.9688 34.6875 30.9375C34.6875 29.9063 34.3203 29.0234 33.586 28.2891C32.8516 27.5547 31.9688 27.1875 30.9375 27.1875C29.9063 27.1875 29.0234 27.5547 28.2891 28.2891C27.5547 29.0234 27.1875 29.9063 27.1875 30.9375C27.1875 31.9688 27.5547 32.8516 28.2891 33.586C29.0234 34.3203 29.9063 34.6875 30.9375 34.6875ZM10.3125 17.8125C8.25 17.8125 6.48438 17.0781 5.01563 15.6094C3.54688 14.1406 2.8125 12.375 2.8125 10.3125C2.8125 8.25 3.54688 6.48438 5.01563 5.01563C6.48438 3.54688 8.25 2.8125 10.3125 2.8125C12.375 2.8125 14.1406 3.54688 15.6094 5.01563C17.0781 6.48438 17.8125 8.25 17.8125 10.3125C17.8125 12.375 17.0781 14.1406 15.6094 15.6094C14.1406 17.0781 12.375 17.8125 10.3125 17.8125ZM30.9375 17.8125C28.875 17.8125 27.1094 17.0781 25.6406 15.6094C24.1719 14.1406 23.4375 12.375 23.4375 10.3125C23.4375 8.25 24.1719 6.48438 25.6406 5.01563C27.1094 3.54688 28.875 2.8125 30.9375 2.8125C33 2.8125 34.7656 3.54688 36.2344 5.01563C37.7031 6.48438 38.4375 8.25 38.4375 10.3125C38.4375 12.375 37.7031 14.1406 36.2344 15.6094C34.7656 17.0781 33 17.8125 30.9375 17.8125ZM10.3125 14.0625C11.3438 14.0625 12.2266 13.6953 12.9609 12.9609C13.6953 12.2266 14.0625 11.3438 14.0625 10.3125C14.0625 9.28125 13.6953 8.39844 12.9609 7.66406C12.2266 6.92969 11.3438 6.5625 10.3125 6.5625C9.28125 6.5625 8.39844 6.92969 7.66406 7.66406C6.92969 8.39844 6.5625 9.28125 6.5625 10.3125C6.5625 11.3438 6.92969 12.2266 7.66406 12.9609C8.39844 13.6953 9.28125 14.0625 10.3125 14.0625ZM30.9375 14.0625C31.9688 14.0625 32.8516 13.6953 33.586 12.9609C34.3203 12.2266 34.6875 11.3438 34.6875 10.3125C34.6875 9.28125 34.3203 8.39844 33.586 7.66406C32.8516 6.92969 31.9688 6.5625 30.9375 6.5625C29.9063 6.5625 29.0234 6.92969 28.2891 7.66406C27.5547 8.39844 27.1875 9.28125 27.1875 10.3125C27.1875 11.3438 27.5547 12.2266 28.2891 12.9609C29.0234 13.6953 29.9063 14.0625 30.9375 14.0625Z" fill="white" fill-opacity="0.7"/>
</g>
</g>
</svg>
